{"title":"Natsamrat.2016.Marathi.Xvid.Mp3.TheCodeGuru","uid":13439844,"size":823996371,"categoryP":"video","categoryS":"movies","magnet":"?xt=urn:btih:ec14779a2a8c95555ebc0919fdb80b505574f0bd&amp;dn=Natsamrat.2016.Marathi.Xvid.Mp3.TheCodeGuru&amp;tr=udp%3A%2F%2Ftracker.leechers-paradise.org%3A6969&amp;tr=udp%3A%2F%2Fzer0day.ch%3A1337&amp;tr=udp%3A%2F%2Fopen.demonii.com%3A1337&amp;tr=udp%3A%2F%2Ftracker.coppersurfer.tk%3A6969&amp;tr=udp%3A%2F%2Fexodus.desync.com%3A6969","seeders":1,"leechers":1,"uploader":"TheCodeGuru","files":14,"time":1454688462,"description":"General \r\nFile Name : Natsamrat.2016.Marathi.Xvid.Mp3.TheCodeGuru.avi \r\nFormat : AVI \r\nFile size : 775 MiB \r\nDuration : 2h 40mn \r\nOverall bit rate : 675 Kbps \r\n\r\nVideo \r\nID : 0 \r\nFormat : MPEG-4 Visual \r\nFormat profile : Advanced    \r\nFormat settings, Matrix : Default (H.263) \r\nCodec ID : DIVX \r\nDuration : 2h 40mn \r\nBit rate : 566 Kbps \r\nWidth : 640 pixels \r\nHeight : 360 pixels \r\nDisplay aspect ratio : 16:9 \r\nFrame rate : 24.000 fps \r\nColor space : YUV \r\nStream size : 650 MiB (84%) \r\nWriting library : XviD 64 \r\n\r\nAudio \r\nLanguage : Marathi\r\nID : 1 \r\nFormat : MPEG Audio \r\nCodec ID/Hint : MP3 \r\nDuration : 2h 40mn \r\nBit rate mode : Constant \r\nBit rate : 96.0 Kbps \r\nChannel(s) : 2 channels \r\nSampling rate : 44.1 KHz \r\nStream size : 110 MiB (14%) \r\n\r\n\r\nNote:\r\nAudio is in Marathi (मराठी) Language\r\n10 screenshots and 2 samples are included in the torrent\r\nEnglish subtitles are hard-coded on the video\r\nVideo has a watermark on all frames\r\n\r\n\r\nScreenshot Links \nhttp://someimage.com/a7g7yR3 \nhttp://someimage.com/vn5FlvA \nhttp://someimage.com/DBKxTCi \nhttp://someimage.com/kXYRy9D \nhttp://someimage.com/GwVIzD9 \nhttp://someimage.com/7ZcUadD \nhttp://someimage.com/NqX7rlx \nhttp://someimage.com/CWsBd96 \nhttp://someimage.com/NrlnPNQ \nhttp://someimage.com/6GO3sna","torrent":{"xt":"urn:btih:ec14779a2a8c95555ebc0919fdb80b505574f0bd","amp;dn":"Natsamrat.2016.Marathi.Xvid.Mp3.TheCodeGuru","amp;tr":["udp%3A%2F%2Ftracker.leechers-paradise.org%3A6969","udp%3A%2F%2Fzer0day.ch%3A1337","udp%3A%2F%2Fopen.demonii.com%3A1337","udp%3A%2F%2Ftracker.coppersurfer.tk%3A6969","udp%3A%2F%2Fexodus.desync.com%3A6969"],"infoHash":"ec14779a2a8c95555ebc0919fdb80b505574f0bd","infoHashBuffer":{"type":"Buffer","data":[236,20,119,154,42,140,149,85,94,188,9,25,253,184,11,80,85,116,240,189]},"announce":[],"urlList":[]}}